<svg xmlns="http://www.w3.org/2000/svg" width="1719" height="1279" viewBox="0 0 1719 1279"><path fill="currentColor" d="M835 20c5.817 11.635-.576 35.039-4.125 46.812-1.659 4.972-1.659 4.972-2.875 6.188-2.101.171-4.207.277-6.312.359l-4.131.184-2.239.099C745.648 76.877 661.731 85.575 597 112l-1.478 100.71-.176 12.028-.036 2.418-.387 26.416-.035 2.365-.173 11.768-.34 23.279-.135 9.199-.033 2.286a37013 37013 0 0 1-.476 31.607q-.15 9.753-.297 19.507l-.032 2.106c-.256 16.971-.462 33.941-.531 50.914q-.018 3.996-.044 7.992l-.017 2.525-.031 4.837a1180 1180 0 0 0-.007 13.171c.009 3.139-.018 6.278-.04 9.417l.048 3.207c-.098 7.325-2.173 11.615-6.78 17.248l-1.503 1.891a153 153 0 0 1-4.122 4.859l-1.574 1.81A884 884 0 0 1 574 479l-1.414 1.593c-6.537 7.324-13.385 14.353-20.274 21.345l-2.375 2.44c-4.799 4.827-9.762 9.602-15.937 12.622h-4c-.103-17.352.178-34.668.699-52.012l.228-7.877q.277-9.56.562-19.12.234-7.857.463-15.716l.067-2.291.135-4.624a91321 91321 0 0 1 1.767-59.707l.239-8.019c2.231-74.88 4.481-149.759 6.84-224.634q-4.07.464-8.137.935l-2.309.262A164 164 0 0 0 513 127.188l-2.929.658c-36.24 8.324-72.008 20.778-105.94 35.992-4.892 2.175-4.892 2.175-7.443 2.037C395 165 395 165 393 162c-2.617-18.113.339-50.431 11-66 2.586-1.19 2.586-1.19 6.152-2.227l2.086-.612c2.581-.745 5.17-1.456 7.762-2.161l3.243-.886c9.424-2.559 18.869-5.032 28.319-7.489l2.279-.593C505.26 68.643 556.906 56.5 609 46l3.143-.636C667.586 34.156 723.572 25.272 780 21l2.724-.218c17.367-1.363 34.869-.874 52.276-.782"/><path fill="currentColor" d="m776 231 1.903.952c14.449 7.36 30.462 18.946 36.535 34.548 2.281 7.281 3.976 14.835 3.562 22.5 14.41-6.308 26.386-16.59 38-27l1.832-1.598c2.731-3.279 2.416-7.922 2.668-11.996l.25-3.871.25-4.035q.244-3.954.5-7.906l.219-3.541c.228-2.481.578-4.673 1.281-7.053 17.958-.682 36.093.299 53 7 1.637 1.637 1.148 3.576 1.164 5.767l-.008 2.12-.005 2.254c-.105 11.572-.94 23.124-1.651 34.671q-.325 5.315-.642 10.629-.195 3.278-.401 6.555c-.418 7.009-.531 13.983-.457 21.004l.91-1.802c31.093-61.462 31.093-61.462 55.953-69.667 18.04-4.485 37.421 1.577 53.129 10.531 8.839 5.694 14.905 12.18 19.008 21.938v2h2l.823-2.238c1.867-4.38 4.724-7.956 7.552-11.762l1.887-2.548c10.718-14.266 22.312-29.054 40.738-32.452 12.713-1.261 24.864.194 37 4l2.126.666c13.948 4.506 24.773 10.598 32.19 23.65 2.596 5.779 2.973 11.293 2.95 17.52l-.01 2.643c-.159 11.195-1.56 22.236-2.944 33.333l-.896 7.409c-3.552 28.976-7.598 57.891-11.624 86.803q-.849 6.101-1.694 12.203-.587 4.218-1.182 8.436c-3.072 22.021-3.072 22.021-3.014 32.978l.01 3.3.026 3.309.013 3.449q.018 4.15.049 8.301c27.353-13.213 52.631-32.397 71.402-56.574 2.223-1.984 3.621-2.377 6.598-2.426 4.504 2.732 7.398 6.793 10.438 11l1.448 2.002c10.192 14.379 10.192 14.379 10.04 21.439-1.065 4.095-2.834 6.804-5.488 9.997l-1.463 1.798c-14.981 18.015-32.165 31.985-52.969 42.692-1.739.929-3.419 1.969-5.084 3.025-15.615 9.13-39.786 5.011-56.561.749-12.625-3.755-22.92-11.095-29.361-22.702-4.911-11.406-6.225-22.618-6.295-34.924-.017-1.988-.06-3.975-.105-5.963-.366-29.499 6.637-59.553 11.462-88.551 9.677-58.189 9.677-58.189 11.126-82.562l.248-3.863q.291-4.569.564-9.137c-14.807 14.369-25.095 33.737-34.795 51.767a818 818 0 0 1-3.592 6.565c-2.147 3.925-4.178 7.902-6.186 11.9a206 206 0 0 1-3.1 5.774c-11.044 19.905-12.819 36.916-13.129 59.408-.143 8.411-.938 16.685-2.01 25.024l-.262 2.044c-2.863 22.014-7.493 43.281-13.926 64.518l-.786 2.659c-6.913 23.249-6.913 23.249-15.652 29.029-7.839 2.888-15.85.753-23.812-.813l-3.448-.674c-7.272-1.469-14.436-3.166-21.552-5.263l-2.431-.706c-5.088-1.578-10.548-3.324-13.457-8.1-11.026-27.267 12.24-72.36 22.013-97.882l.726-1.918c2.721-7.155 5.678-14.028 9.266-20.793 15.746-30.28 13.053-65.755 6.133-98.539-4.063 3.787-7.082 7.762-10.062 12.438l-1.433 2.238c-40.98 65.059-63.254 143.125-80.94 217.326C902 518 902 518 901 519c-8.765.634-17.351-.514-26-1.812l-3.578-.502c-21.54-3.144-21.54-3.144-26.422-7.686-.395-2.078-.395-2.078-.245-4.527l.144-2.836.222-3.129.186-3.334q.209-3.644.443-7.287c.255-3.966.483-7.934.704-11.903.463-8.228.962-16.455 1.465-24.681q.377-6.2.748-12.401 1.105-18.338 2.219-36.675.871-14.339 1.733-28.679.442-7.34.891-14.681.277-4.563.551-9.127.126-2.1.256-4.201c.465-7.522.811-15.001.683-22.539l-1.918.942C826.45 337 826.45 337 819 337l.102 3.555c-.009 6.906-.887 13.724-1.727 20.57l-.265 2.174C811.716 407.043 802.553 457.467 773 492l-2.133 2.617c-7.585 8.945-16.509 15.428-26.867 20.758l-1.865.975c-9.815 4.809-19.931 6.19-30.76 6.088l-3.431-.023c-9.73-.189-18.669-1.505-27.944-4.415l-2.035-.633c-23.291-7.502-42.491-19.194-53.941-41.246-28.612-57.049-15.125-131.333 4.038-189.246 8.749-25.554 21.4-54.522 45.735-68.816C705.511 202.82 746.616 216.157 776 231m-61.539 32.445C701.339 277.068 691.23 293.584 684 311l-.862 2.054c-19.5 47.301-25.098 106.109-5.228 154.201 3.824 8.808 8.698 16.578 15.09 23.745 25.851-9.723 42.853-36.092 54.045-60.039C757.305 407.988 763.418 382.978 766 358l.347-3.211c.336-3.344.599-6.687.841-10.039l.313-3.138c.24-4.322.342-7.354-2.119-11.026a124 124 0 0 0-4.286-4.432c-3.227-3.316-5.159-7.111-7.221-11.216l-1.278-2.503C742.366 292.013 737.635 270.714 736 248c-6.107 0-17.429 11.602-21.539 15.445M578.889 507.458c4.247 2.106 5.245 5.014 6.893 9.222l1 2.4q1.073 2.584 2.117 5.183a745 745 0 0 0 3.426 8.34l9.668 23.636q3.008 7.38 6.007 14.76c3.266-.591 6.282-1.37 9.388-2.533l2.53-.941 2.696-1.017 2.813-1.05q4.444-1.662 8.886-3.333l5.943-2.222a10282 10282 0 0 0 10.968-4.11c.806-.3 1.61-.602 2.44-.912a464 464 0 0 0 4.605-1.763c4.487-1.735 7.895-2.862 12.73-2.118 2.439 2 2.439 2 4 5 .677 7.879-1.3 15.473-2.885 23.145l-.906 4.48c-.795 3.935-1.6 7.868-2.406 11.8-1.427 6.967-2.838 13.938-4.251 20.908l-.462 2.279a2078 2078 0 0 0-6.046 30.9l-.637 3.379-.57 3.085-.493 2.666C656 661 656 661 656 665l1.918 1.035a8000 8000 0 0 1 18.892 10.234q3.012 1.635 6.029 3.264 3.71 2.007 7.41 4.03l2.216 1.189c3.678 2.022 6.875 3.91 9.535 7.248.083 3.879-.667 5.577-3.062 8.625-16.272 13.157-40.775 11.4-60.355 9.353C612.04 706.89 587.043 696.16 563 685l-3.072-1.417c-92.766-43.002-92.766-43.002-106.826-78.516-3.197-8.9-5.838-18.564-4.102-28.067 1.59-1.933 1.59-1.933 4-3 5.34.37 9.513 1.927 14.192 4.387l2.02 1.029a905 905 0 0 1 6.35 3.272q4.155 2.14 8.317 4.262l2.046 1.044c6.563 3.317 13.274 6.214 20.075 9.006a752 752 0 0 0 17.899-23.921 1523 1523 0 0 1 12.1-16.58 1741 1741 0 0 0 13.626-18.686q3.183-4.41 6.375-8.813l1.636-2.258q2.39-3.285 4.802-6.554l1.43-1.975c8.725-11.752 8.725-11.752 15.02-10.755m-229.325 60.48c1.293.043 2.589.087 3.922.13q5.54.192 11.082.397l3.279.116a564 564 0 0 1 15.868.827l3 .197 2.286.394c7.038 14.075-.76 40.673-4.937 55.118-1.115 3.024-2.09 5.325-4.062 7.883-2.733.511-2.733.511-5.97.353l-3.534-.136L367 633l-2.902-.135a561 561 0 0 1-8.598-.522c-35.329-2.13-70.546-2.61-105.937-2.53l-3.5.008q-21.531.052-43.062.178c0 .617.002 1.233.005 1.868.09 30.103-.017 60.195-.411 90.294l-.093 7.394q-.07 5.864-.155 11.727-.03 2.171-.056 4.344-.037 2.99-.085 5.979l-.047 3.392c-.147 2.772-.534 5.305-1.159 8.003l3.851-.437c14.935-1.516 29.773-1.761 44.774-1.75l3.005-.002c9.363 0 18.73.041 28.08.513l3.502.17C287 762 287 762 288.864 763.32c2 2.955 1.663 6.358 1.637 9.805l-.01 2.495c-.413 16.156-3.867 34.995-11.49 49.38-7.464-.524-14.892-1.185-22.324-2.053-14.144-1.648-28.257-2.61-42.475-3.3-.731-.038-1.463-.074-2.218-.112-1.995-.1-3.992-.192-5.988-.285C203 819 203 819 201 818l.006 2.072c.06 22.656-.137 45.308-.376 67.964q-.049 4.519-.095 9.036-.165 15.814-.334 31.627-.158 14.67-.303 29.34-.13 12.687-.266 25.375-.082 7.54-.156 15.079a9506 9506 0 0 1-.15 14.127q-.028 2.579-.052 5.159c-.082 8.778-.254 17.488-1.274 26.22-16.827 3.525-43.112.123-57.687-9.123-2.312-1.877-2.312-1.877-3.312-3.877-.25-4.396-.162-8.807-.15-13.21l.004-2.144c.04-22.853.779-45.7 1.417-68.543q.208-7.536.412-15.071C139.679 895.35 140.75 858.673 142 822c-4.394.756-8.787 1.524-13.18 2.293l-3.713.639c-10.915 1.92-21.555 4.577-32.213 7.596C91 833 91 833 89 833c-.408-8.716.21-17.109 1.313-25.75l.357-2.9c2.205-16.38 2.205-16.38 6.14-20.027 2.28-1.376 4.327-2.197 6.874-2.97l2.817-.86c.97-.285 1.939-.572 2.936-.866l2.736-.844c10.157-3.054 20.5-5.384 30.827-7.783q.563-16.575 1.121-33.154l.522-15.407.504-14.896.2-5.903a6592 6592 0 0 0 1.29-41.31c.246-8.462.75-16.885 1.363-25.33-39.542 5.034-78.568 11.948-116.354 25.006-.824.279-1.648.557-2.497.842-.71.249-1.42.495-2.151.75-2.315.466-3.777.133-5.998-.597-3.42-15.442-.466-36.543 6-51 2.91-4.323 5.29-5.897 10.204-7.543l1.87-.636a428 428 0 0 1 6.176-2.009c.72-.234 1.44-.467 2.18-.71 82.25-26.702 169.55-32.942 302.133-31.164"/><path fill="currentColor" d="M704.328 730.08c2.636 1.57 5.163 3.245 7.692 4.982l2.846 1.893c2.994 1.998 5.97 4.021 8.947 6.045a4130 4130 0 0 0 5.97 3.988C738.988 753.144 748.15 759.345 757 766c-1 3-1 3-4.418 4.717a327 327 0 0 1-4.554 1.857c-.798.33-1.596.657-2.417.996-2.554 1.05-5.113 2.084-7.673 3.117l-5.19 2.127Q726.38 781.423 720 784c1.375 3.526 2.954 6.704 4.813 10 18.287 36.664 14.8 90.793 2.308 128.667-9.946 28.591-24.47 54.31-44.121 77.333l-2.175 2.586C675.424 1008.82 669.53 1013.98 663 1019l-2.617 2.094c-16.153 12.462-35.971 19.06-56.383 16.906-6.11-.89-12.056-2.348-18-4-.662-.182-1.325-.364-2.008-.55-14.583-4.123-27.406-10.486-37.992-21.45l-1.73-1.774c-14.446-15.82-18.498-37.693-20.875-58.285-.395-2.94-.395-2.94-1.395-5.94l-2.79 1.792C507.074 955.436 495.4 960.233 481 962l-.575 1.686c-8.8 25.54-19.15 49.01-38.425 68.314l-1.98 2.015c-15.42 14.6-37.057 20.36-57.841 20.012-26.68-1.015-54.387-11.009-73.94-29.539-22.72-25.257-26.474-64.629-26.426-96.926 0-.749 0-1.498.002-2.27.026-12.2.507-24.193 2.185-36.292l.343-2.637C289.762 845.681 301.076 795.383 329 764l2.082-2.367C341.402 750.587 355.778 743.64 371 743l3.047-.156C409.702 741.91 451.497 754.457 478 779c18.794 18.324 18.699 43.824 19.237 68.705.146 22.28-2.391 44.436-5.811 66.411-.583 3.953-1.02 7.91-1.426 11.884 11.003-17.42 21.186-35.225 31.104-53.278A5328 5328 0 0 1 532 853l1.39-2.519c11.809-21.244 30.33-39.867 49.61-54.48l2.848-2.259c25.183-19.803 52.572-36.298 80.95-51.074q3.274-1.706 6.537-3.434a1181 1181 0 0 1 9.79-5.109l2.962-1.572 2.796-1.42 2.419-1.254c4.733-1.542 8.503-1.897 13.026.2M405 783c-17.67 14.82-30.99 30.705-42 51-.573 1.03-1.147 2.057-1.738 3.117C349.724 858.814 342.598 883.591 340 908l-.336 2.97c-3.461 36.3.232 79.461 24.274 108.717L366 1022c11.81-3.598 20.318-11.628 29-20l2.372-2.145C411.252 986.915 421.986 967.89 428 950v-3c-1.644-1.57-1.644-1.57-3.812-3.125-.708-.518-1.415-1.037-2.145-1.57C420 941 420 941 417 940c-1.011-1.78-1.011-1.78-2-4a498 498 0 0 0-2.812-4.5c-21.576-36.082-21.157-89.867-11.286-129.583 2.437-9.372 2.437-9.372 4.313-13.753C406 786 406 786 405 783m220.884 63.642c-9.482 4.924-18.735 8.795-29.446 9.983-2.255.426-2.255.426-4.438 1.375-1.202 1.98-1.202 1.98-2.09 4.476l-.987 2.742L588 868l-.81 2.434C575.868 906.02 573.119 941.714 590 976c4.65 8.698 10.024 16.977 17 24 4.74-.585 8.484-2.664 12.563-5 .707-.403 1.413-.806 2.142-1.22 6.494-3.777 12.496-7.998 18.295-12.78l1.53-1.257c9.862-8.208 17.853-17.603 22.47-29.743v-3c-2.16-1.762-2.16-1.762-5.062-3.688C642.225 931.515 634.15 912.508 630 893c-2.098-13.46-.063-26.699 1.709-40.094.3-2.989.34-5.905.29-8.906-2.221 0-4.18 1.63-6.115 2.642M776 545c19.559-.799 40.801 1.389 59 9 2 2 2 2 2.182 4.133l-.102 2.761-.11 3.285-.161 3.743-.154 4.06c-1.067 27.392-2.594 54.769-3.996 82.146-2.883 56.435-5.017 112.752-4.92 169.269q.014 8.037 0 16.074c-.051 29.896-.006 59.706 2.261 89.529l.243 3.253a700 700 0 0 0 1.632 17.997l.256 2.555c1.843 18.292 3.871 36.604 9.037 54.304A81 81 0 0 1 843 1015h2l.773-1.723c1.368-2.539 2.989-4.513 4.852-6.715 22.899-28.398 35.382-65.416 47.583-99.366q1.163-3.22 2.342-6.433c5.927-16.194 10.699-32.139 14.075-49.091C921.148 819.191 933.903 775.75 961 754c14.681-9.008 29.454-6.199 45.486-2.603 13.911 3.337 28.831 8.269 36.944 20.814 10.741 19.639 8.259 44.931 2.57 65.789l-.617 2.266c-6.48 22.879-17.978 43.691-33.383 61.734l-2.109 2.48C997.515 918.633 982.241 931.172 965 939h-2c4.187 29 10.229 56.476 27 81 12.195-5.721 20.98-15.409 29-26l1.198-1.577c10.213-13.55 18.515-28.178 25.852-43.453a509 509 0 0 1 2.802-5.697C1070.743 898.7 1086.387 849.172 1098 801l-1.854-.593-2.443-.794-2.417-.78c-6.736-2.455-11.527-7.148-14.598-13.583-5.473-25.869 6.88-61.868 19.437-84.188A81 81 0 0 1 1099 697l1.281-1.699c2.947-3.127 5.882-3.678 9.969-3.863 14.404.658 28.449 5.272 41.75 10.562l3.625 1.402c7.449 3.232 7.449 3.232 9.773 6.66 3.464 9.153 1.255 18.946-.71 28.188l-.689 3.334c-1.558 7.496-3.18 14.978-4.999 22.416l1.741-.535q3.94-1.206 7.884-2.403l2.738-.841c21.806-6.606 47.616-3.151 67.809 7.443 6.799 4.406 11.145 9.585 12.93 17.563 6.849 32.948-8.417 70.885-16.554 102.395-5.422 21.013-10.518 41.862-13.548 63.378l-.331 2.293c-2.038 15.846-2.29 33.334 2.331 48.707a618 618 0 0 1 1.188 4.875L1226 1010h2l.727-1.602c1.301-2.451 2.809-4.686 4.394-6.962 30.476-44.006 46.695-97.778 63.504-148.124l.783-2.345q1.1-3.301 2.194-6.604l.648-1.949c.594-1.801 1.172-3.608 1.75-5.414l1.076-3.252c1.233-4.999 1.666-9.954 2.108-15.076l.303-3.318q.32-3.498.63-6.997c.534-6.01 1.091-12.017 1.645-18.025l.325-3.542a1368 1368 0 0 1 2.663-26.352l.349-3.175c.438-3.84.895-7.526 1.901-11.263 9.08-.34 17.572.648 26.5 2.25l3.723.621A129.7 129.7 0 0 1 1366 755c.13 6.831-.227 13.468-.988 20.254l-.638 5.968-.34 3.133c-1.872 17.321-3.544 34.642-4.784 52.02l-.178 2.465q-.497 6.973-.931 13.951a890 890 0 0 1-.433 6.319c-1.022 15.357-.895 30.755-.893 46.139q0 4.86-.021 9.72c-.098 23.683.146 47.245 4.206 70.656l.5 3.094c.69 4.149 1.411 8.212 2.625 12.242.875 3.039.875 3.039.875 7.039 47.166-34.862 56.447-127.326 64.542-181.19 3.172-21.448 6.353-43.014 7.168-64.7.196-5.016.196-5.016 1.29-6.11 17.818-.99 35.695 1.082 52.128 8.391 3.192 2.9 3.319 3.335 3.636 7.397.038 2.037.042 4.075.021 6.112l.037 3.386c.034 3.734.026 7.468.018 11.202q.024 3.972.057 7.944.063 8.44.077 16.88c.018 8.545.092 17.09.179 25.635l.083 8.51.021 2.13a8732 8732 0 0 1 .201 25.583l.059 8.534q.078 11.058.16 22.117.167 22.59.323 45.179 3.63-3.589 7.25-7.188l2.066-2.041c3.464-3.446 6.699-6.892 9.684-10.771a85 85 0 0 1 3.688-3.25c3.029-2.583 5.849-5.27 8.624-8.125 4.026-4.074 8.292-7.684 12.762-11.258a271 271 0 0 0 7.415-6.254c8.417-7.288 17.391-13.74 26.511-20.113l1.881-1.323c60.864-42.592 60.864-42.592 86.849-38.021 12.532 2.722 28.017 7.004 37.27 16.344l1 2c-2.319 2.57-4.673 4.048-7.734 5.645l-2.893 1.528-3.123 1.639c-33.645 17.975-65.119 39.58-94.25 64.188l-1.854 1.554c-13.493 11.311-26.18 23.395-38.646 35.821l-2.824 2.81c-5.101 5.113-9.986 10.325-14.676 15.815a1265 1265 0 0 1-3.07 3.465c-7.501 8.5-14.506 17.287-21.3 26.359a1745 1745 0 0 1-5.079 6.738l-4.858 6.438c-4.807 6.406-4.807 6.406-4.867 11.005l-.041 2.52-.031 2.748-.095 5.837-.047 3.099c-.885 56.193-2.439 145.3-44.612 188.791-7.546 6.789-12.079 9.317-22.27 9.215-13.419-.773-31.097-4.038-40.73-14.215-14.396-17.593-17.403-36.82-16-59 .688-6.172 2.276-12.048 4-18l.765-2.767c12.303-44.209 32.435-86.68 55.969-125.932l1.516-2.573c1.75-2.728 1.75-2.728 4.123-5.698 8.189-10.522 7.7-20.496 7.189-33.405a1516 1516 0 0 1-.123-6.023A799 799 0 0 0 1444 978l-.747 1.806c-15.05 36.352-15.05 36.352-27.253 51.194l-1.73 2.219c-6.119 7.504-13.534 12.99-23.415 14-23.96 1.226-47.015-5.132-65.855-20.219l-2.52-2.012c-11.363-10.163-16.155-25.337-18.48-39.988-.054-1.999-.075-4.001 0-6h-2l-1.121 3.773c-1.996 5.971-4.914 11.349-7.941 16.852l-1.749 3.198c-21.171 38.257-21.171 38.257-37.134 43.669-22.272 5.505-49.592-.176-69.512-10.93-10.778-6.622-16.394-19.171-19.481-31.124-4.175-19.053-3.2-40.595-.437-59.813l.425-2.969c3.893-24.291 10.572-48.103 16.991-71.814 3.858-14.285 7.476-28.553 10.377-43.061l.741-3.692a232 232 0 0 0 3.517-25.694C1197 794 1197 794 1198 791l-2.762 1.398a1651 1651 0 0 1-10.735 5.361q-2.55 1.265-5.096 2.537a1149 1149 0 0 1-8.032 3.954l-2.698 1.338c-5.308 2.552-9.876 3.943-15.677 4.85-3.324.91-3.324.91-6 2.562-2.607 4.948-3.387 10.071-4.348 15.545-1.212 6.423-2.792 12.765-4.314 19.12q-.89 3.728-1.768 7.459c-36.136 152.936-36.136 152.936-89.933 187.048-22.546 13.783-47.68 9.423-72.332 3.508-22.935-5.905-41.711-16.534-54.176-37.321-1.178-2.461-1.714-4.671-2.129-7.359h-2l-.777 2.09c-4.444 10.576-11.08 20.01-18.223 28.91l-1.879 2.348c-8.129 9.729-17.41 14.21-30.166 15.383-22.953 1.543-53.125-3.354-71.072-18.743-33.383-35.253-26.021-108.161-26.083-152.486q-.005-3.23-.013-6.46-.036-15.178-.037-30.358l-.002-7.33c-.017-55.758.81-111.421 3.008-167.141.26-6.601.511-13.201.763-19.802.798-20.941 1.619-41.881 2.495-62.819l.231-5.533c.472-11.361 1.048-22.71 1.755-34.059m212 244c-20.583 20.621-25.862 56.473-26.125 84.312.031 4.671.252 9.102 1.125 13.688 19.679-18.449 36.926-50.916 38.096-78.247.083-2.626.127-5.25.154-7.878l.029-2.533c-.031-5.679-.828-10.855-2.279-16.342-4.294 0-7.937 4.286-11 7m464 303c-41.407 81.039-41.407 81.039-42 108l-.082 3.402c-.069 5.964-.035 11.732 1.082 17.598 19.005-15.366 27.822-34.638 31.875-58.438l.731-4.149c2.294-13.187 4.284-26.426 6.269-39.663l.477-3.168q.67-4.485 1.328-8.973l.406-2.72c.579-3.994 1.09-7.839.914-11.889z"/><path fill="currentColor" d="M1529 1045h25v5h-9v28h-7v-28h-9zm30 0h8a7467 7467 0 0 1 3.312 7.062l.936 1.991A373 373 0 0 1 1577 1067c2.116-2.116 2.791-3.576 3.91-6.316l1.061-2.565 1.091-2.681q1.077-2.63 2.161-5.254l.961-2.358C1587 1046 1587 1046 1588 1045h8v33h-7l-1-17-7 17h-7l-7-17-1 17h-7z"/></svg>